<svg xmlns="http://www.w3.org/2000/svg" width="525" height="525" viewBox="0 0 525 525">
  <defs>
    <radialGradient id="a" fx="50%" fy="50%">
      <stop stop-color="#27AAE1" stop-opacity=".8" offset="0%"/>
      <stop stop-color="#05AAE2" stop-opacity=".65" offset="9.5%"/>
      <stop stop-color="#00ABE8" stop-opacity=".373" offset="48%"/>
      <stop stop-color="#00ACED" stop-opacity=".142" offset="80.2%"/>
      <stop stop-color="#00AEEF" stop-opacity="0" offset="100%"/>
    </radialGradient>
  </defs>
  <g fill="none">
    <circle cx="262.5" cy="262.5" r="262.5" fill="url(#a)" opacity=".7"/>
    <circle cx="262.5" cy="262.5" r="189.209" fill="#4DC4D2" opacity=".06"/>
    <circle cx="262.5" cy="262.5" r="161.538" fill="#4DC4D2" opacity=".06"/>
    <circle cx="262.5" cy="262.5" r="138.13" fill="#4DC4D2"/>
    <path fill="#FFFFFF" d="M262.5,124.220085 C257.938034,124.220085 253.450855,124.444444 249.038462,124.893162 L274.839744,134.241453 L275.438034,145.982906 L303.632479,164.230769 L304.82906,147.179487 L320.08547,136.784188 C302.58547,128.707265 283.066239,124.220085 262.5,124.220085 L262.5,124.220085 Z"/>
    <path fill="#4DAC47" d="M395.320513,224.284188 C392.029915,212.767094 387.24359,201.923077 381.260684,191.901709 L362.41453,186.666667 L355.982906,191.976496 L358.301282,198.40812 L348.279915,203.119658 L347.083333,218.376068 L372.361111,208.354701 L395.320513,224.284188 L395.320513,224.284188 Z"/>
    <path fill="#4DAC47" d="M400.032051,249.113248 L387.168803,228.995726 L378.942308,233.108974 L370.715812,217.852564 L341.324786,239.017094 L347.232906,279.027778 L373.707265,292.564103 L380.737179,334.220085 C393.450855,313.354701 400.779915,288.824786 400.779915,262.574786 C400.630342,258.012821 400.405983,253.525641 400.032051,249.113248 L400.032051,249.113248 Z M206.634615,144.337607 L207.831197,158.995726 L222.489316,154.284188 L227.799145,145.534188 L221.367521,136.111111 L206.634615,144.337607 Z M236.025641,153.760684 L237.820513,145.534188 L246.047009,143.739316 L249.561966,151.367521 L236.025641,153.760684 Z M369.519231,183.151709 L360.694444,180.758547 L355.384615,168.418803 L369.519231,183.151709 Z"/>
    <path fill="#4DAC47" d="M213.589744,285.982906 L291.217949,324.797009 L239.989316,398.83547 L232.884615,397.489316 L226.004274,395.769231 L230.940171,360.619658 L208.354701,325.395299 L211.271368,295.405983 L171.260684,273.643162 L141.869658,227.200855 L142.991453,193.173077 C142.991453,193.173077 147.628205,184.722222 153.611111,177.24359 C159.668803,169.690171 165.502137,164.155983 165.502137,164.155983 L199.604701,156.07906 L196.538462,169.615385 L189.732906,172.606838 L207.606838,191.452991 L221.741453,181.431624 L228.173077,162.061966 L261.67735,169.690171 L268.707265,186.143162 L236.773504,217.32906 L223.611111,230.117521 L218.974359,253.824786 L205.288462,244.252137 L188.83547,247.767094 L187.564103,266.912393 L201.773504,260.705128 L213.589744,285.982906 L213.589744,285.982906 Z"/>
  </g>
</svg>
