<svg xmlns="http://www.w3.org/2000/svg" width="79" height="72" viewBox="0 0 79 72">
  <g fill="none">
    <g transform="translate(0 10.817)">
      <path fill="#1C71DA" d="M71.6619718,47.4030761 L71.6619718,25.0932169 C71.6619718,11.3000789 60.4370704,0.0791323944 46.6399775,0.0791323944 L31.7825577,0.0791323944 C17.9854648,0.0791323944 6.76056338,11.3000789 6.76056338,25.0932169 L6.76056338,47.4030761 L0,47.4030761 L0,50.1073014 L8.11267606,50.1073014 L9.46478873,50.1073014 L13.5211268,50.1073014 L13.5211268,52.8115268 C13.5211268,53.558231 14.125893,54.1636394 14.8732394,54.1636394 L18.9295775,54.1636394 L21.6338028,54.1636394 L22.9859155,54.1636394 L25.6901408,54.1636394 L29.7464789,54.1636394 C30.4938254,54.1636394 31.0985915,53.558231 31.0985915,52.8115268 L31.0985915,50.1073014 L47.3239437,50.1073014 L47.3239437,52.8115268 C47.3239437,53.558231 47.9287099,54.1636394 48.6760563,54.1636394 L52.7323944,54.1636394 L55.4366197,54.1636394 L56.7887324,54.1636394 L59.4929577,54.1636394 L63.5492958,54.1636394 C64.2966423,54.1636394 64.9014085,53.558231 64.9014085,52.8115268 L64.9014085,50.1073014 L68.9577465,50.1073014 L70.3098592,50.1073014 L78.4225352,50.1073014 L78.4225352,47.4030761 L71.6619718,47.4030761 Z"/>
      <path fill="#D0E8FF" d="M28.3943662 51.4594141L25.6901408 51.4594141 25.6901408 47.4030761 22.9859155 47.4030761 22.9859155 51.4594141 21.6338028 51.4594141 21.6338028 47.4030761 18.9295775 47.4030761 18.9295775 51.4594141 16.2253521 51.4594141 16.2253521 50.1073014 16.2253521 48.7551887C16.2253521 47.2637746 17.4414761 46.0509634 18.9374873 46.0509634L25.6821972 46.0509634C27.1782423 46.0509634 28.3943324 47.2637746 28.3943324 48.7551887L28.3943324 50.1073014 28.3943324 51.4594141 28.3943662 51.4594141zM62.1971831 51.4594141L59.4929577 51.4594141 59.4929577 47.4030761 56.7887324 47.4030761 56.7887324 51.4594141 55.4366197 51.4594141 55.4366197 47.4030761 52.7323944 47.4030761 52.7323944 51.4594141 50.028169 51.4594141 50.028169 50.1073014 50.028169 48.7551887C50.028169 47.2637746 51.244293 46.0509634 52.7403042 46.0509634L59.4850141 46.0509634C60.9810592 46.0509634 62.1971493 47.2637746 62.1971493 48.7551887L62.1971493 50.1073014 62.1971493 51.4594141 62.1971831 51.4594141z"/>
      <path fill="#5CB0FF" d="M64.709138,47.4030761 C64.1035606,45.077138 62.0015324,43.346738 59.4850479,43.346738 L52.740338,43.346738 C50.2238535,43.346738 48.1219268,45.077138 47.5163493,47.4030761 L30.9063211,47.4030761 C30.3007437,45.077138 28.1987155,43.346738 25.682231,43.346738 L18.9374873,43.346738 C16.4210028,43.346738 14.3190761,45.077138 13.7134986,47.4030761 L9.46478873,47.4030761 L9.46478873,25.0932169 C9.46478873,12.791493 19.4762366,2.78335775 31.7825577,2.78335775 L46.6399437,2.78335775 C58.9462648,2.78335775 68.9577127,12.791493 68.9577127,25.0932169 L68.9577127,47.4030761 L64.709138,47.4030761 Z"/>
      <path fill="#1C71DA" d="M28.3943662 23.0650479C23.9207662 23.0650479 20.2816901 26.7041239 20.2816901 31.1777239L20.2816901 32.5298366 22.9859155 32.5298366 22.9859155 31.1777239C22.9859155 28.195538 25.411538 25.7692732 28.3943662 25.7692732 29.7801465 25.7692732 31.0324732 26.3080225 31.9903775 27.1679324 30.7191211 27.3881239 29.7464789 28.4919887 29.7464789 29.8256113 29.7464789 31.3170254 30.9599324 32.5298366 32.4507042 32.5298366 32.9453746 32.5298366 33.4034028 32.3865803 33.8028169 32.1535099L33.8028169 32.5298366 36.5070423 32.5298366 36.5070423 31.1777239C36.5070423 26.7041577 32.8679662 23.0650479 28.3943662 23.0650479zM52.7323944 23.0650479C48.2587944 23.0650479 44.6197183 26.7041239 44.6197183 31.1777239L44.6197183 32.5298366 47.3239437 32.5298366 47.3239437 31.1777239C47.3239437 28.195538 49.7495662 25.7692732 52.7323944 25.7692732 54.1181746 25.7692732 55.3705014 26.3080225 56.3284056 27.1679324 55.0571831 27.3881239 54.084507 28.4919887 54.084507 29.8256113 54.084507 31.3170254 55.2979606 32.5298366 56.7887324 32.5298366 57.2834028 32.5298366 57.741431 32.3865803 58.1408451 32.1535099L58.1408451 32.5298366 60.8450704 32.5298366 60.8450704 31.1777239C60.8450704 26.7041577 57.2059944 23.0650479 52.7323944 23.0650479z"/>
    </g>
    <path fill="#FF5D5D" d="M8.53984225,16.2257577 C8.19390423,16.2257577 7.84793239,16.0937239 7.58386479,15.8297915 C7.05569577,15.3017915 7.05569577,14.4456676 7.58386479,13.9174986 L12.3641239,9.13707042 C12.8916169,8.60923944 13.7479437,8.60923944 14.2760789,9.13707042 C14.8042479,9.66507042 14.8042479,10.5211944 14.2760789,11.0493634 L9.49581972,15.8297915 C9.23205634,16.0937239 8.88578028,16.2257577 8.53984225,16.2257577 Z"/>
    <path fill="#FF5D5D" d="M13.3201014,16.2252845 C12.9741634,16.2252845 12.6278535,16.0932507 12.3641239,15.8291493 L7.58383099,11.0485521 C7.05566197,10.5205521 7.05566197,9.66442817 7.58383099,9.13642817 C8.112,8.60859718 8.96829296,8.60842817 9.49578592,9.13659718 L14.2760451,13.9171944 C14.8042141,14.4451944 14.8042141,15.3013183 14.2760451,15.8293183 C14.0119775,16.0932169 13.6660394,16.2252845 13.3201014,16.2252845 Z"/>
    <path fill="#00D40B" d="M41.6666028,71.6623775 C39.0571268,71.6623775 36.9342085,69.5394592 36.9342085,66.9299831 C36.9342085,64.320507 39.0571268,62.1975887 41.6666028,62.1975887 C44.2760789,62.1975887 46.3989972,64.320507 46.3989972,66.9299831 C46.3989972,69.5394592 44.2760789,71.6623775 41.6666028,71.6623775 Z M41.6666028,64.9018141 C40.5482028,64.9018141 39.6384338,65.8115831 39.6384338,66.9299831 C39.6384338,68.0483831 40.5482028,68.9581521 41.6666028,68.9581521 C42.7850028,68.9581521 43.6947718,68.0483831 43.6947718,66.9299831 C43.6947718,65.8115831 42.7850028,64.9018141 41.6666028,64.9018141 Z"/>
    <path fill="#FFC504" d="M66.4485972,10.3526873 C66.1026592,10.3526873 65.7563493,10.2206535 65.4926197,9.95672113 L61.668338,6.13243944 C61.140169,5.60427042 61.140169,4.74831549 61.668338,4.22014648 L65.4926197,0.395864789 C66.0201127,-0.131966197 66.8770817,-0.131966197 67.4045746,0.395864789 L71.2288563,4.22014648 C71.7570254,4.74831549 71.7570254,5.60427042 71.2288563,6.13243944 L67.4045746,9.95672113 C67.1408451,10.2206535 66.794569,10.3526873 66.4485972,10.3526873 Z M64.5366423,5.17629296 L66.4485972,7.0884169 L68.3605521,5.17629296 L66.4485972,3.26416901 L64.5366423,5.17629296 Z"/>
  </g>
</svg>
