<svg xmlns="http://www.w3.org/2000/svg" width="330" height="379" viewBox="0 0 330 379">
  <g fill="none" fill-rule="evenodd">
    <path fill="#FFD180" fill-rule="nonzero" d="M317.267323,121.299163 C333.798194,105.546177 334.071774,79.7401096 317.878355,63.6592247 C301.683871,47.5772753 275.156129,47.3111236 258.624194,63.0651742 C244.93771,76.1076713 242.407355,96.0360449 251.128935,111.636792 L244.959,133.143978 L267.191419,127.58673 C283.045258,136.391028 303.580839,134.34166 317.266258,121.299163 M206.274484,39.3574466 C210.33029,22.0511994 199.198645,4.82373315 181.407387,0.877235955 C163.618258,-3.06926124 145.905774,7.75991854 141.849968,25.0651011 C138.491419,39.3947079 145.55129,53.6604382 158.175387,60.3887528 L163.512871,77.2127331 L175.820806,64.3022472 C190.194968,63.5634101 202.915935,53.6849242 206.274484,39.356382 M27.0770323,33.6032472 C2.62509677,46.273132 -6.6393871,75.8266152 6.38603226,99.6141882 C17.1695806,119.307284 39.8512258,128.858935 61.215,124.375876 L84.5310968,138.5245 L85.47,111.808194 C101.214194,97.0633904 105.721355,73.4237978 94.9367419,53.7307022 C81.9113226,29.9431292 51.5300323,20.9322978 27.0770323,33.6032472"/>
    <path fill="#14D4F4" fill-rule="nonzero" d="M84.8877097,378.268615 L84.8877097,361.016663 C84.8877097,318.25141 120.52771,283.581427 164.492226,283.581427 C208.456742,283.581427 244.095677,318.250346 244.095677,361.016663 L244.095677,378.268615"/>
    <path stroke="#424242" stroke-width="8.315" d="M195.119419,327.859486 L195.119419,292.795598 C195.119419,276.679581 181.203,263.494427 164.193097,263.494427 C147.183194,263.494427 133.266774,276.679581 133.266774,292.795598 L133.266774,320.97148"/>
    <path fill="#F0F0F0" fill-rule="nonzero" d="M211.365,337.810365 C211.365,346.539076 204.092226,353.613388 195.120484,353.613388 C186.148742,353.613388 178.874903,346.539076 178.874903,337.81143 C178.874903,329.083784 186.148742,322.009472 195.119419,322.009472 C204.092226,322.009472 211.363935,329.083784 211.363935,337.81143"/>
    <path stroke="#424242" stroke-width="8.315" d="M113.892581,354.455492 L113.892581,340.265348 C113.892581,329.856688 122.567323,321.417551 133.266774,321.417551 C143.96729,321.417551 152.642032,329.856688 152.642032,340.265348 L152.642032,354.455492"/>
    <path stroke="#424242" stroke-width="3.519" d="M202.924452,337.810365 C202.924452,342.004916 199.43071,345.402076 195.120484,345.402076 C190.809194,345.402076 187.315452,342.003851 187.315452,337.81143 C187.315452,333.617944 190.810258,330.220784 195.120484,330.220784 C199.43071,330.220784 202.923387,333.617944 202.923387,337.81143 L202.924452,337.810365 Z"/>
    <path stroke="#424242" stroke-width="8.315" d="M152.640968,349.218691 L152.640968,358.292334 C152.640968,364.097635 147.803806,368.804261 141.835065,368.804261 M124.699548,368.804261 C118.730806,368.804261 113.892581,364.098699 113.892581,358.292334 L113.892581,349.218691" stroke-linecap="round" stroke-linejoin="round"/>
    <path fill="#4C241C" fill-rule="nonzero" d="M118.728677,165.914702 C97.7012903,165.914702 80.4976452,182.649256 80.4976452,203.103545 L80.4976452,311.188809 L80.4987097,311.188809 C101.525032,311.188809 118.728677,294.454256 118.728677,273.999966 L118.728677,165.914702 Z"/>
    <path fill="#4C241C" fill-rule="nonzero" d="M164.647645,258.04364 C129.400452,258.04364 100.561645,229.991253 100.561645,195.703463 L100.561645,179.923862 C100.561645,145.636073 129.399387,117.583685 164.647645,117.583685 C199.893774,117.583685 228.733645,145.636073 228.733645,179.923862 L228.733645,195.703463 C228.733645,229.991253 199.894839,258.04364 164.647645,258.04364"/>
    <path fill="#B25C4B" fill-rule="nonzero" d="M234.609774,216.530365 C234.609774,223.61 228.71129,229.34823 221.434258,229.34823 C214.15829,229.34823 208.258742,223.61 208.258742,216.530365 C208.258742,209.45286 214.15829,203.714629 221.434258,203.714629 C228.71129,203.714629 234.609774,209.45286 234.609774,216.53143 L234.609774,216.530365 Z M184.985226,299.000126 L165.491806,340.839171 L145.998387,299.000126 L184.985226,299.000126 Z M122.483226,216.530365 C122.483226,223.61 116.585806,229.34823 109.30771,229.34823 C102.031742,229.34823 96.1321935,223.61 96.1321935,216.530365 C96.1321935,209.45286 102.031742,203.714629 109.30771,203.714629 C116.584742,203.714629 122.483226,209.45286 122.483226,216.53143 L122.483226,216.530365 Z"/>
    <path fill="#B25C4B" fill-rule="nonzero" d="M165.508839,310.987598 C153.551129,310.987598 143.856581,301.558376 143.856581,289.925419 L143.856581,264.670817 C143.856581,253.03786 153.551129,243.608638 165.508839,243.608638 C177.466548,243.608638 187.161097,253.03786 187.161097,264.670817 L187.161097,289.925419 C187.161097,301.558376 177.466548,310.987598 165.508839,310.987598"/>
    <path fill="#BF7358" fill-rule="nonzero" d="M165.400258,282.447621 C134.344065,282.447621 109.167194,257.957407 109.167194,227.747062 L109.167194,193.746716 C109.167194,163.536371 134.343,139.046157 165.400258,139.046157 C196.456452,139.046157 221.633323,163.536371 221.633323,193.745652 L221.633323,227.747062 C221.633323,257.957407 196.456452,282.447621 165.400258,282.447621"/>
    <path fill="#A85F48" fill-rule="nonzero" d="M143.501032,202.159239 C143.501032,205.951368 140.341548,209.025952 136.44329,209.025952 C132.545032,209.025952 129.385548,205.951368 129.385548,202.159239 C129.385548,198.36711 132.545032,195.294654 136.44329,195.294654 C140.341548,195.294654 143.501032,198.36711 143.501032,202.159239 M201.275516,202.159239 C201.275516,205.951368 198.116032,209.025952 194.217774,209.025952 C190.319516,209.025952 187.160032,205.951368 187.160032,202.159239 C187.160032,198.36711 190.319516,195.294654 194.217774,195.294654 C198.116032,195.294654 201.275516,198.36711 201.275516,202.159239"/>
    <polygon fill="#B25C4B" fill-rule="nonzero" points="174.782 220.168 156.019 220.168 156.019 195.234 174.782 195.234 174.782 220.167"/>
    <path fill="#933634" fill-rule="nonzero" d="M194.560548,228.528483 C194.560548,244.177138 181.520226,256.860862 165.435387,256.860862 C149.349484,256.860862 136.310226,244.177138 136.310226,228.529548"/>
    <path fill="#FFFFFF" fill-rule="nonzero" d="M137.851645,237.572317 L193.018065,237.572317 C194.034293,234.665515 194.556041,231.608893 194.561613,228.529548 L136.309161,228.529548 C136.309161,231.695688 136.866968,234.729817 137.85271,237.572317"/>
    <path fill="#AF3F3F" fill-rule="nonzero" d="M182.408032,251.52186 C178.440581,246.702385 172.350484,243.608638 165.508839,243.608638 C158.636323,243.608638 152.523871,246.733258 148.557484,251.589994 C153.512507,255.030919 159.402966,256.870474 165.435387,256.860862 C171.507495,256.870277 177.434628,255.005808 182.408032,251.52186"/>
  </g>
</svg>
