<svg xmlns="http://www.w3.org/2000/svg" width="330" height="379" viewBox="0 0 330 379">
  <g fill="none" fill-rule="evenodd" transform="translate(80 117)">
    <path fill="#14D4F4" fill-rule="nonzero" d="M4.88770968,261.268615 L4.88770968,244.016663 C4.88770968,201.25141 40.5277097,166.581427 84.4922258,166.581427 C128.456742,166.581427 164.095677,201.250346 164.095677,244.016663 L164.095677,261.268615"/>
    <path stroke="#424242" stroke-width="8.315" d="M115.119419,210.859486 L115.119419,175.795598 C115.119419,159.679581 101.203,146.494427 84.1930968,146.494427 C67.1831935,146.494427 53.2667742,159.679581 53.2667742,175.795598 L53.2667742,203.97148"/>
    <path fill="#F0F0F0" fill-rule="nonzero" d="M131.365,220.810365 C131.365,229.539076 124.092226,236.613388 115.120484,236.613388 C106.148742,236.613388 98.8749032,229.539076 98.8749032,220.81143 C98.8749032,212.083784 106.148742,205.009472 115.119419,205.009472 C124.092226,205.009472 131.363935,212.083784 131.363935,220.81143"/>
    <path stroke="#424242" stroke-width="8.315" d="M33.8925806,237.455492 L33.8925806,223.265348 C33.8925806,212.856688 42.5673226,204.417551 53.2667742,204.417551 C63.9672903,204.417551 72.6420323,212.856688 72.6420323,223.265348 L72.6420323,237.455492"/>
    <path stroke="#424242" stroke-width="3.519" d="M122.924452,220.810365 C122.924452,225.004916 119.43071,228.402076 115.120484,228.402076 C110.809194,228.402076 107.315452,225.003851 107.315452,220.81143 C107.315452,216.617944 110.810258,213.220784 115.120484,213.220784 C119.43071,213.220784 122.923387,216.617944 122.923387,220.81143 L122.924452,220.810365 Z"/>
    <path stroke="#424242" stroke-width="8.315" d="M72.6409677,232.218691 L72.6409677,241.292334 C72.6409677,247.097635 67.8038065,251.804261 61.8350645,251.804261 M44.6995484,251.804261 C38.7308065,251.804261 33.8925806,247.098699 33.8925806,241.292334 L33.8925806,232.218691" stroke-linecap="round" stroke-linejoin="round"/>
    <path fill="#4C241C" fill-rule="nonzero" d="M38.7286774,48.9147022 C17.7012903,48.9147022 0.497645161,65.6492556 0.497645161,86.1035449 L0.497645161,194.188809 L0.498709677,194.188809 C21.5250323,194.188809 38.7286774,177.454256 38.7286774,156.999966 L38.7286774,48.9147022 Z"/>
    <path fill="#4C241C" fill-rule="nonzero" d="M84.6476452,141.04364 C49.4004516,141.04364 20.5616452,112.991253 20.5616452,78.7034635 L20.5616452,62.9238624 C20.5616452,28.636073 49.3993871,0.583685393 84.6476452,0.583685393 C119.893774,0.583685393 148.733645,28.636073 148.733645,62.9238624 L148.733645,78.7034635 C148.733645,112.991253 119.894839,141.04364 84.6476452,141.04364"/>
    <path fill="#B25C4B" fill-rule="nonzero" d="M154.609774,99.5303652 C154.609774,106.61 148.71129,112.34823 141.434258,112.34823 C134.15829,112.34823 128.258742,106.61 128.258742,99.5303652 C128.258742,92.4528596 134.15829,86.7146292 141.434258,86.7146292 C148.71129,86.7146292 154.609774,92.4528596 154.609774,99.5314298 L154.609774,99.5303652 Z M104.985226,182.000126 L85.4918065,223.839171 L65.9983871,182.000126 L104.985226,182.000126 Z M42.4832258,99.5303652 C42.4832258,106.61 36.5858065,112.34823 29.3077097,112.34823 C22.0317419,112.34823 16.1321935,106.61 16.1321935,99.5303652 C16.1321935,92.4528596 22.0317419,86.7146292 29.3077097,86.7146292 C36.5847419,86.7146292 42.4832258,92.4528596 42.4832258,99.5314298 L42.4832258,99.5303652 Z"/>
    <path fill="#B25C4B" fill-rule="nonzero" d="M85.5088387,193.987598 C73.551129,193.987598 63.8565806,184.558376 63.8565806,172.925419 L63.8565806,147.670817 C63.8565806,136.03786 73.551129,126.608638 85.5088387,126.608638 C97.4665484,126.608638 107.161097,136.03786 107.161097,147.670817 L107.161097,172.925419 C107.161097,184.558376 97.4665484,193.987598 85.5088387,193.987598"/>
    <path fill="#BF7358" fill-rule="nonzero" d="M85.4002581,165.447621 C54.3440645,165.447621 29.1671935,140.957407 29.1671935,110.747062 L29.1671935,76.7467163 C29.1671935,46.5363708 54.343,22.0461573 85.4002581,22.0461573 C116.456452,22.0461573 141.633323,46.5363708 141.633323,76.7456517 L141.633323,110.747062 C141.633323,140.957407 116.456452,165.447621 85.4002581,165.447621"/>
    <path fill="#A85F48" fill-rule="nonzero" d="M63.5010323,85.1592388 C63.5010323,88.951368 60.3415484,92.0259522 56.4432903,92.0259522 C52.5450323,92.0259522 49.3855484,88.951368 49.3855484,85.1592388 C49.3855484,81.3671096 52.5450323,78.2946545 56.4432903,78.2946545 C60.3415484,78.2946545 63.5010323,81.3671096 63.5010323,85.1592388 M121.275516,85.1592388 C121.275516,88.951368 118.116032,92.0259522 114.217774,92.0259522 C110.319516,92.0259522 107.160032,88.951368 107.160032,85.1592388 C107.160032,81.3671096 110.319516,78.2946545 114.217774,78.2946545 C118.116032,78.2946545 121.275516,81.3671096 121.275516,85.1592388"/>
    <polygon fill="#B25C4B" fill-rule="nonzero" points="94.782 103.168 76.019 103.168 76.019 78.234 94.782 78.234 94.782 103.167"/>
    <path fill="#933634" fill-rule="nonzero" d="M114.560548,111.528483 C114.560548,127.177138 101.520226,139.860862 85.4353871,139.860862 C69.3494839,139.860862 56.3102258,127.177138 56.3102258,111.529548"/>
    <path fill="#FFFFFF" fill-rule="nonzero" d="M57.8516452,120.572317 L113.018065,120.572317 C114.034293,117.665515 114.556041,114.608893 114.561613,111.529548 L56.3091613,111.529548 C56.3091613,114.695688 56.8669677,117.729817 57.8527097,120.572317"/>
    <path fill="#AF3F3F" fill-rule="nonzero" d="M102.408032,134.52186 C98.4405806,129.702385 92.3504839,126.608638 85.5088387,126.608638 C78.6363226,126.608638 72.523871,129.733258 68.5574839,134.589994 C73.5125067,138.030919 79.4029661,139.870474 85.4353871,139.860862 C91.5074947,139.870277 97.4346278,138.005808 102.408032,134.52186"/>
  </g>
</svg>
