<svg xmlns="http://www.w3.org/2000/svg" width="76" height="72" viewBox="0 0 76 72">
  <g fill="none">
    <g transform="translate(0 13.032)">
      <path fill="#1C71DA" d="M69.0678733,45.6870624 L69.0678733,24.1848 C69.0678733,10.8909611 58.2499222,0.0762027149 44.9522715,0.0762027149 L30.6314389,0.0762027149 C17.3337882,0.0762027149 6.5158371,10.8909611 6.5158371,24.1848 L6.5158371,45.6870624 L0,45.6870624 L0,48.2933973 L7.81900452,48.2933973 L67.7647059,48.2933973 L75.6301683,48.2933973 L75.6301683,45.6870624 L69.0678733,45.6870624 Z"/>
      <path fill="#D0E8FF" d="M9.12217195,45.6870624 L9.12217195,24.1848 C9.12217195,12.3283873 18.7712145,2.68253756 30.6314389,2.68253756 L44.9522715,2.68253756 C56.8124959,2.68253756 66.4615385,12.3283873 66.4615385,24.1848 L66.4615385,45.6870624 L9.12217195,45.6870624 Z"/>
      <path fill="#1C71DA" d="M33.8823529,22.2300489 L33.8823529,19.623714 L29.9728507,19.623714 L22.1538462,19.623714 L18.2443439,19.623714 L18.2443439,22.2300489 L20.8506787,22.2300489 L20.8506787,24.8363837 C20.8506787,27.7106172 23.1891149,30.0490534 26.0633484,30.0490534 C28.9375819,30.0490534 31.2760181,27.7106172 31.2760181,24.8363837 L31.2760181,22.2300489 L33.8823529,22.2300489 Z"/>
      <path fill="#5CB0FF" d="M28.6696833,24.8363837 C28.6696833,26.27381 27.5007747,27.4427186 26.0633484,27.4427186 C24.6259222,27.4427186 23.4570136,26.27381 23.4570136,24.8363837 L23.4570136,22.2300489 L28.6696833,22.2300489 L28.6696833,24.8363837 Z"/>
      <path fill="#1C71DA" d="M45.6108597,19.623714 L41.7013575,19.623714 L41.7013575,22.2300489 L44.3076923,22.2300489 L44.3076923,24.8363837 C44.3076923,27.7106172 46.6461285,30.0490534 49.520362,30.0490534 C52.3945955,30.0490534 54.7330317,27.7106172 54.7330317,24.8363837 L54.7330317,22.2300489 L57.3393665,22.2300489 L57.3393665,19.623714 L53.4298643,19.623714 L45.6108597,19.623714 Z"/>
      <path fill="#5CB0FF" d="M52.1266968,24.8363837 C52.1266968,26.27381 50.9577882,27.4427186 49.520362,27.4427186 C48.0829357,27.4427186 46.9140271,26.27381 46.9140271,24.8363837 L46.9140271,22.2300489 L52.1266968,22.2300489 L52.1266968,24.8363837 Z"/>
      <path fill="#1C71DA" d="M36.8704833,31.9579982 L32.2629394,36.5655421 L34.1056833,38.408286 L37.7918552,34.7221466 L41.4780271,38.4083186 L43.320771,36.5655747 L38.7132271,31.9580308 C38.2041774,31.4489484 37.379533,31.4489484 36.8704833,31.9579982 Z"/>
    </g>
    <path fill="#FF5D5D" d="M12.1400471,71.6745339 C11.8064688,71.6745339 11.4730208,71.5472796 11.2185122,71.2929014 C10.7096253,70.7838516 10.7096253,69.9588814 11.2185122,69.4498317 L15.8258932,64.8424507 C16.334943,64.3337267 17.1599131,64.3337267 17.6689629,64.8424507 C18.1778498,65.3515005 18.1778498,66.1764706 17.6689629,66.6855204 L13.0615819,71.2929014 C12.8070407,71.5472796 12.4736253,71.6745339 12.1400471,71.6745339 Z"/>
    <path fill="#FF5D5D" d="M16.7474281,71.6740778 C16.4138498,71.6740778 16.0804018,71.5468235 15.8258932,71.2924452 L11.2185122,66.6849014 C10.7096253,66.1758516 10.7096253,65.3507186 11.2185122,64.8418317 C11.7278878,64.3331077 12.5528579,64.3334335 13.0615819,64.8418317 L17.6689629,69.4493756 C18.1778498,69.9584253 18.1778498,70.7835584 17.6689629,71.2924452 C17.4144217,71.546791 17.0808434,71.6740778 16.7474281,71.6740778 Z"/>
    <path fill="#00D40B" d="M59.7056579,56.0365249 C57.1906425,56.0365249 55.1445719,53.9904543 55.1445719,51.4754389 C55.1445719,48.9604235 57.1906425,46.9143529 59.7056579,46.9143529 C62.2206733,46.9143529 64.2667439,48.9604235 64.2667439,51.4754389 C64.2667439,53.9904543 62.2206733,56.0365249 59.7056579,56.0365249 Z M59.7056579,49.5206878 C58.627743,49.5206878 57.7509068,50.397524 57.7509068,51.4754389 C57.7509068,52.5533538 58.627743,53.43019 59.7056579,53.43019 C60.7835729,53.43019 61.660409,52.5533538 61.660409,51.4754389 C61.660409,50.397524 60.7835729,49.5206878 59.7056579,49.5206878 Z"/>
    <path fill="#FFC504" d="M66.6495529,9.97786425 C66.3161376,9.97786425 65.9825267,9.85060995 65.728181,9.59623167 L62.0421719,5.91038552 C61.7976652,5.66587873 61.6603765,5.33451584 61.6603765,4.98885068 C61.6603765,4.64318552 61.7976652,4.31182262 62.0421719,4.06731584 L65.728181,0.381502262 C66.2370679,-0.127221719 67.0622009,-0.127058824 67.5710878,0.381502262 L71.2569339,4.06734842 C71.7658208,4.57639819 71.7658208,5.40136833 71.2569339,5.9104181 L67.5710878,9.59626425 C67.3165792,9.85060995 66.9830009,9.97786425 66.6495529,9.97786425 Z M64.8064833,4.98885068 L66.6495529,6.83175747 L68.4924597,4.98885068 L66.6495529,3.14594389 L64.8064833,4.98885068 Z"/>
  </g>
</svg>
