<svg xmlns="http://www.w3.org/2000/svg" width="81" height="72" viewBox="0 0 81 72">
  <g fill="none">
    <g transform="translate(0 9.692)">
      <path fill="#1C71DA" d="M73.3846154,48.5421577 L73.3846154,25.6960038 C73.3846154,11.5713 61.8898846,0.0806192308 47.7611308,0.0806192308 L32.5465615,0.0806192308 C18.4178077,0.0806192308 6.92307692,11.5713 6.92307692,25.6960038 L6.92307692,48.5421577 L0,48.5421577 L0,51.3113885 L8.30769231,51.3113885 L72,51.3113885 L80.3563615,51.3113885 L80.3563615,48.5421577 L73.3846154,48.5421577 Z"/>
      <path fill="#5CB0FF" d="M9.69230769,48.5421577 L9.69230769,25.6960038 C9.69230769,13.0985654 19.9444154,2.84985 32.5465615,2.84985 L47.7610962,2.84985 C60.3632423,2.84985 70.61535,13.0985654 70.61535,25.6960038 L70.61535,48.5421577 L9.69230769,48.5421577 Z"/>
      <path fill="#1C71DA" d="M38.7692308,20.1575423 C38.7692308,16.3140231 36.3813231,13.9267731 32.5384615,13.9267731 C30.9943038,13.9267731 29.5150154,14.5109077 28.3846154,15.5175923 C27.2542154,14.5109077 25.7749269,13.9267731 24.2307692,13.9267731 C20.3879077,13.9267731 18,16.3140231 18,20.1575423 C18,24.1450615 25.9318038,31.9267731 28.3846154,31.9267731 C30.8374269,31.9267731 38.7692308,24.1450615 38.7692308,20.1575423 Z"/>
      <path fill="#D0E8FF" d="M28.3846154,29.1000808 C26.6781808,28.2536308 20.7692308,22.5616846 20.7692308,20.1575423 C20.7692308,17.8284462 21.9009808,16.6960038 24.2307692,16.6960038 C25.4558423,16.6960038 26.5659577,17.3234077 27.1987615,18.3747115 C27.6990577,19.2062769 29.0701385,19.2062769 29.5704692,18.3747115 C30.2032731,17.3234077 31.3134231,16.6960038 32.5384615,16.6960038 C34.86825,16.6960038 36,17.8284462 36,20.1575423 C36,22.5616846 30.09105,28.2536308 28.3846154,29.1000808 Z"/>
      <path fill="#1C71DA" d="M43.4274231 38.6125615C41.2680115 40.7699308 37.7564538 40.7712808 35.5943423 38.6125615L34.6153846 37.6335692 32.6574692 39.5914846 33.6364269 40.5704423C35.2563231 42.1896462 37.3832654 42.9996115 39.5115923 42.9996115 41.6385346 42.9996115 43.7655115 42.1896808 45.3854077 40.5704423L46.3643654 39.5914846 44.40645 37.6335692 43.4274231 38.6125615zM56.0769231 13.9267731C54.5327654 13.9267731 53.0534769 14.5109077 51.9230769 15.5175923 50.7926769 14.5109077 49.3133885 13.9267731 47.7692308 13.9267731 43.9263692 13.9267731 41.5384615 16.3140231 41.5384615 20.1575423 41.5384615 24.1450615 49.4702654 31.9267731 51.9230769 31.9267731 54.3758885 31.9267731 62.3076923 24.1450615 62.3076923 20.1575423 62.3076923 16.3140231 59.9197846 13.9267731 56.0769231 13.9267731z"/>
      <path fill="#D0E8FF" d="M51.9230769,29.1000808 C50.2166423,28.2536308 44.3076923,22.5616846 44.3076923,20.1575423 C44.3076923,17.8284462 45.4394423,16.6960038 47.7692308,16.6960038 C48.9943038,16.6960038 50.1044192,17.3234077 50.7372231,18.3747115 C51.2375192,19.2062769 52.6086,19.2062769 53.1089308,18.3747115 C53.7417346,17.3234077 54.8518846,16.6960038 56.0769231,16.6960038 C58.4067115,16.6960038 59.5384615,17.8284462 59.5384615,20.1575423 C59.5384615,22.5616846 53.6295115,28.2536308 51.9230769,29.1000808 Z"/>
    </g>
    <path fill="#FF5D5D" d="M55.82205,72 C55.4677962,72 55.1135077,71.8647923 54.8430923,71.5945154 C54.3022269,71.0538231 54.3022269,70.1771192 54.8430923,69.6362538 L59.7382615,64.7409115 C60.2784346,64.2003923 61.1553462,64.2003923 61.6961769,64.7409115 C62.2370423,65.2816038 62.2370423,66.1583077 61.6961769,66.6991731 L56.8010077,71.5945154 C56.5309038,71.8647923 56.1763038,72 55.82205,72 Z"/>
    <path fill="#FF5D5D" d="M60.7172192,71.9994808 C60.3629654,71.9994808 60.0083308,71.8642731 59.7382615,71.5938231 L54.8430923,66.6983077 C54.3022269,66.1576154 54.3022269,65.2809115 54.8430923,64.7402192 C55.3839577,64.1997 56.2608346,64.1995269 56.8010077,64.7403923 L61.6961769,69.6359077 C62.2370423,70.1766 62.2370423,71.0533038 61.6961769,71.5939962 C61.4257269,71.8642731 61.0714731,71.9994808 60.7172192,71.9994808 Z"/>
    <path fill="#00D40B" d="M9.43743462,9.69230769 C6.76523077,9.69230769 4.59128077,7.51835769 4.59128077,4.84615385 C4.59128077,2.17395 6.76523077,0 9.43743462,0 C12.1096385,0 14.2835885,2.17395 14.2835885,4.84615385 C14.2835885,7.51835769 12.1096385,9.69230769 9.43743462,9.69230769 Z M9.43743462,2.76923077 C8.29215,2.76923077 7.36051154,3.70086923 7.36051154,4.84615385 C7.36051154,5.99143846 8.29215,6.92307692 9.43743462,6.92307692 C10.5827192,6.92307692 11.5143577,5.99143846 11.5143577,4.84615385 C11.5143577,3.70086923 10.5827192,2.76923077 9.43743462,2.76923077 Z"/>
    <path fill="#FFC504" d="M69.4305346,17.5242115 C69.0762808,17.5242115 68.7216462,17.3890038 68.4515769,17.1187269 L64.5353654,13.2025154 C63.9945,12.66165 63.9945,11.7851192 64.5353654,11.2442538 L68.4515769,7.32804231 C68.99175,6.78752308 69.8693192,6.78752308 70.4094923,7.32804231 L74.3257038,11.2442538 C74.8665692,11.7851192 74.8665692,12.66165 74.3257038,13.2025154 L70.4094923,17.1187269 C70.1394231,17.3890038 69.7848231,17.5242115 69.4305346,17.5242115 Z M67.4726192,12.2233846 L69.4305346,14.1814731 L71.38845,12.2233846 L69.4305346,10.2652962 L67.4726192,12.2233846 Z"/>
  </g>
</svg>
