<svg xmlns="http://www.w3.org/2000/svg" width="45" height="45" viewBox="0 0 45 45" xmlns:xlink="http://www.w3.org/1999/xlink">
  <defs>
    <circle id="a" cx="22.5" cy="22.5" r="22.5"/>
  </defs>
  <g fill="none" fill-rule="evenodd">
    <mask id="b" fill="white">
      <use xlink:href="#a"/>
    </mask>
    <use fill="#D8D8D8" xlink:href="#a"/>
    <polygon fill="#FFFFFF" fill-rule="nonzero" points="0 0 45 0 45 44.611 0 44.611" mask="url(#b)"/>
    <polygon fill="#7AC70C" fill-rule="nonzero" points="0 22.222 45 22.222 45 44.5 0 44.5" mask="url(#b)"/>
    <path fill="#D33131" fill-rule="nonzero" d="M40.1625,17.5 L38.5875,14.8333333 C38.475,14.6111111 38.08125,14.6111111 37.96875,14.8333333 L36.39375,17.5 C36.28125,17.7222222 36.45,18.0555556 36.675,18.0555556 L37.18125,18.0555556 L37.18125,18.2777778 C37.18125,19.8333333 35.94375,21.1111111 34.425,21.2222222 L27.61875,21.2222222 L34.36875,14.5555556 C31.3875,11.6111111 26.60625,11.6111111 23.625,14.5555556 L19.0125,19.1111111 L19.0125,13.1111111 L19.8,13.1111111 C20.925,13.1111111 21.825,12.2222222 21.825,11.1111111 L13.05,11.1111111 C12.20625,11.1111111 11.475,11.6666667 11.25,12.4444444 L8.325,12.4444444 C7.48125,12.4444444 6.75,13.1666667 6.75,14 L9.16875,14 C9.1125,14.1666667 9.1125,14.3333333 9.1125,14.5 C9.1125,15.6111111 10.0125,16.5 11.1375,16.5 L12.4875,16.5 L12.4875,24.1666667 L8.83125,22.5555556 L8.83125,21.3888889 C8.83125,20.9444444 8.49375,20.6111111 8.04375,20.6111111 C7.59375,20.6111111 7.25625,20.9444444 7.25625,21.3888889 L7.25625,26.2222222 C7.25625,26.6666667 7.59375,27 8.04375,27 C8.49375,27 8.83125,26.6666667 8.83125,26.2222222 L8.83125,26.0555556 L14.79375,28.6666667 C14.85,28.6666667 14.90625,28.7222222 14.9625,28.7222222 L15.525,29 L14.45625,31.4444444 L13.275,31.4444444 C12.825,31.4444444 12.4875,31.7777778 12.4875,32.2222222 C12.4875,32.6666667 12.825,33 13.275,33 L18.16875,33 C18.61875,33 18.95625,32.6666667 18.95625,32.2222222 C18.95625,31.7777778 18.61875,31.4444444 18.16875,31.4444444 L18,31.4444444 L19.06875,29.0555556 L25.9875,29.0555556 L26.26875,29.3333333 L24.13125,31.4444444 L22.6125,31.4444444 C22.1625,31.4444444 21.825,31.7777778 21.825,32.2222222 C21.825,32.6666667 22.1625,33 22.6125,33 L28.40625,33 C28.85625,33 29.19375,32.6666667 29.19375,32.2222222 C29.19375,31.8888889 28.96875,31.5555556 28.63125,31.4444444 L29.64375,30.4444444 C29.98125,30.1111111 30.15,29.7222222 30.09375,29.2777778 L30.09375,29 L31.05,29 C32.175,29 33.24375,28.5 33.91875,27.7222222 L34.9875,29.0555556 L35.1,29.1666667 L35.1,31.3888889 L33.46875,31.3888889 C33.01875,31.3888889 32.68125,31.7222222 32.68125,32.1666667 C32.68125,32.6111111 33.01875,32.9444444 33.46875,32.9444444 L38.3625,32.9444444 C38.8125,32.9444444 39.15,32.6111111 39.15,32.1666667 C39.15,31.7222222 38.8125,31.3888889 38.3625,31.3888889 L38.30625,31.3888889 L38.30625,28 C38.30625,27.8333333 38.25,27.6666667 38.19375,27.5 C38.1375,27.2222222 38.025,27 37.85625,26.7777778 L35.26875,23.5555556 L35.26875,23.3888889 C37.575,22.8888889 39.31875,20.8333333 39.31875,18.3888889 L39.31875,18.1666667 L39.825,18.1666667 C40.1625,18.0555556 40.33125,17.7222222 40.1625,17.5 L40.1625,17.5 Z" mask="url(#b)"/>
  </g>
</svg>
