<svg xmlns="http://www.w3.org/2000/svg" width="167" height="68" viewBox="0 0 167 68">
  <g fill="none" fill-rule="evenodd">
    <path fill="#FFFFFF" d="M113.198,18.016 C113.492668,18.2933347 113.64,18.6573311 113.64,19.108 C113.64,19.5586689 113.492668,19.9139987 113.198,20.174 C112.903332,20.4340013 112.530669,20.564 112.08,20.564 L101.316,20.564 L101.316,52.44 C101.316,52.8906689 101.160002,53.2633319 100.848,53.558 C100.535998,53.8526681 100.154669,54 99.704,54 C99.2186642,54 98.8286681,53.8526681 98.534,53.558 C98.2393319,53.2633319 98.092,52.8906689 98.092,52.44 L98.092,20.564 L87.328,20.564 C86.8773311,20.564 86.5046681,20.4253347 86.21,20.148 C85.9153319,19.8706653 85.768,19.5066689 85.768,19.056 C85.768,18.6399979 85.9153319,18.2933347 86.21,18.016 C86.5046681,17.7386653 86.8773311,17.6 87.328,17.6 L112.08,17.6 C112.530669,17.6 112.903332,17.7386653 113.198,18.016 Z M128.696,27.22 C129.250669,27.4973347 129.528,27.9133306 129.528,28.468 C129.528,28.9533358 129.389335,29.3433319 129.112,29.638 C128.834665,29.9326681 128.505335,30.08 128.124,30.08 C127.950666,30.08 127.612669,29.9933342 127.11,29.82 C126.607331,29.6466658 126.130669,29.56 125.68,29.56 C124.397327,29.56 123.12334,30.0539951 121.858,31.042 C120.59266,32.0300049 119.552671,33.3039922 118.738,34.864 C117.923329,36.4240078 117.516,38.0013254 117.516,39.596 L117.516,52.44 C117.516,52.8906689 117.368668,53.2633319 117.074,53.558 C116.779332,53.8526681 116.406669,54 115.956,54 C115.505331,54 115.132668,53.8526681 114.838,53.558 C114.543332,53.2633319 114.396,52.8906689 114.396,52.44 L114.396,29.144 C114.396,28.6933311 114.543332,28.3206681 114.838,28.026 C115.132668,27.7313319 115.505331,27.584 115.956,27.584 C116.406669,27.584 116.779332,27.7313319 117.074,28.026 C117.368668,28.3206681 117.516,28.6933311 117.516,29.144 L117.516,33.72 C118.313337,31.7439901 119.517992,30.1060065 121.13,28.806 C122.742008,27.5059935 124.639989,26.8386668 126.824,26.804 C127.517337,26.804 128.141331,26.9426653 128.696,27.22 Z M134.99,53.558 C134.695332,53.8526681 134.322669,54 133.872,54 C133.421331,54 133.048668,53.8526681 132.754,53.558 C132.459332,53.2633319 132.312,52.8906689 132.312,52.44 L132.312,28.52 C132.312,28.0693311 132.459332,27.6966681 132.754,27.402 C133.048668,27.1073319 133.421331,26.96 133.872,26.96 C134.322669,26.96 134.695332,27.1073319 134.99,27.402 C135.284668,27.6966681 135.432,28.0693311 135.432,28.52 L135.432,52.44 C135.432,52.8906689 135.284668,53.2633319 134.99,53.558 Z M132.26,22.982 C131.878665,22.652665 131.688,22.1760031 131.688,21.552 L131.688,21.032 C131.688,20.4079969 131.887331,19.931335 132.286,19.602 C132.684669,19.272665 133.230663,19.108 133.924,19.108 C135.310674,19.108 136.004,19.7493269 136.004,21.032 L136.004,21.552 C136.004,22.1760031 135.822002,22.652665 135.458,22.982 C135.093998,23.311335 134.565337,23.476 133.872,23.476 C133.178663,23.476 132.641335,23.311335 132.26,22.982 Z M164.372,47.76 C163.227994,49.8746772 161.650677,51.529994 159.64,52.726 C157.629323,53.922006 155.393346,54.52 152.932,54.52 C150.470654,54.52 148.234677,53.922006 146.224,52.726 C144.213323,51.529994 142.636006,49.8746772 141.492,47.76 C140.347994,45.6453228 139.776,43.288013 139.776,40.688 C139.776,38.087987 140.347994,35.7306772 141.492,33.616 C142.636006,31.5013228 144.213323,29.8373394 146.224,28.624 C148.234677,27.4106606 150.470654,26.804 152.932,26.804 C155.393346,26.804 157.629323,27.4106606 159.64,28.624 C161.650677,29.8373394 163.227994,31.5013228 164.372,33.616 C165.516006,35.7306772 166.088,38.087987 166.088,40.688 C166.088,43.288013 165.516006,45.6453228 164.372,47.76 Z M161.668,35.072 C160.801329,33.4079917 159.596674,32.0993381 158.054,31.146 C156.511326,30.1926619 154.804009,29.716 152.932,29.716 C151.059991,29.716 149.361341,30.1926619 147.836,31.146 C146.310659,32.0993381 145.106004,33.4079917 144.222,35.072 C143.337996,36.7360083 142.896,38.6079896 142.896,40.688 C142.896,42.7333436 143.337996,44.5879917 144.222,46.252 C145.106004,47.9160083 146.310659,49.2246619 147.836,50.178 C149.361341,51.1313381 151.059991,51.608 152.932,51.608 C154.804009,51.608 156.511326,51.1400047 158.054,50.204 C159.596674,49.2679953 160.801329,47.9680083 161.668,46.304 C162.534671,44.6399917 162.968,42.7680104 162.968,40.688 C162.968,38.6079896 162.534671,36.7360083 161.668,35.072 Z"/>
    <g fill-rule="nonzero">
      <g transform="translate(0 3.563)">
        <path fill="#1C71DA" d="M63.0517241,52.3314341 L63.0517241,32.7331808 C63.0517241,20.6165013 53.1760694,10.7593817 41.0367091,10.7593817 L27.9632909,10.7593817 C26.1117116,10.7593817 24.3227379,11.0136838 22.6034483,11.445469 L22.6034483,5.41149345 C22.6034483,2.46584629 20.2020698,0.0694253275 17.25,0.0694253275 C14.2979302,0.0694253275 11.8965517,2.46584629 11.8965517,5.41149345 L11.8965517,17.2921328 C11.8965517,17.4276873 11.9319737,17.5528192 11.9738793,17.6743284 C8.24975302,21.6117066 5.94827586,26.903621 5.94827586,32.7331808 L5.94827586,52.3314341 L0,52.3314341 L0,54.7069799 L7.13793103,54.7069799 L16.6551724,54.7069799 L22.6034483,54.7069799 L26.1724138,54.7069799 L59.4827586,54.7069799 L61.862069,54.7069799 L69,54.7069799 L69,52.3314341 L63.0517241,52.3314341 Z"/>
        <path fill="#5CB0FF" d="M17.25,2.44497118 C18.8898504,2.44497118 20.2241379,3.77598952 20.2241379,5.41149345 L20.2241379,12.1879755 C18.0597685,13.0031144 16.0550509,14.1379721 14.2758621,15.5530847 L14.2758621,5.41149345 C14.2758621,3.77598952 15.6101496,2.44497118 17.25,2.44497118 Z"/>
        <path fill="#D0E8FF" d="M59.4827586,52.3314341 L26.1724138,52.3314341 L22.6034483,52.3314341 L16.6551724,52.3314341 L8.32758621,52.3314341 L8.32758621,32.7331808 C8.32758621,21.9266445 17.13615,13.1349275 27.9632909,13.1349275 L41.0367091,13.1349275 C51.86385,13.1349275 60.6724138,21.9266445 60.6724138,32.7331808 L60.6724138,52.3314341 L59.4827586,52.3314341 Z"/>
        <path fill="#1C71DA" d="M52.0747164,36.9216838 L16.3850612,45.2360943 C15.7960332,45.3729555 15.4039526,45.9291598 15.4730716,46.5282725 C15.5421905,47.1279493 16.0510655,47.5803424 16.6551724,47.5803424 L39.2586207,47.5803424 L41.637931,47.5803424 L45.2068966,47.5803424 L47.5862069,47.5803424 L52.3448276,47.5803424 C53.0018147,47.5803424 53.5344828,47.048517 53.5344828,46.3925694 L53.5344828,38.078159 C53.5344828,37.7156803 53.3689422,37.3729188 53.0842875,37.1478952 C52.8002276,36.9228419 52.4284603,36.8387476 52.0747164,36.9216838 Z"/>
        <polygon fill="#5CB0FF" points="26.989 45.205 39.259 42.346 39.259 45.205"/>
        <polygon fill="#5CB0FF" points="41.638 45.205 41.638 41.792 45.207 40.961 45.207 45.205"/>
        <polygon fill="#5CB0FF" points="51.155 45.205 47.586 45.205 47.586 40.406 51.155 39.575"/>
        <path fill="#1C71DA" d="M21.4137931 29.7637485C21.4137931 27.7988157 23.0147121 26.2004297 24.9827586 26.2004297 26.9508052 26.2004297 28.5517241 27.7988157 28.5517241 29.7637485L28.5517241 30.9515214 30.9310345 30.9515214 30.9310345 29.7637485C30.9310345 26.4892664 28.2624297 23.8248838 24.9827586 23.8248838 21.7030875 23.8248838 19.0344828 26.4892664 19.0344828 29.7637485L19.0344828 30.9515214 21.4137931 30.9515214 21.4137931 29.7637485zM40.4482759 29.7637485C40.4482759 27.7988157 42.0491948 26.2004297 44.0172414 26.2004297 45.9852879 26.2004297 47.5862069 27.7988157 47.5862069 29.7637485L47.5862069 30.9515214 49.9655172 30.9515214 49.9655172 29.7637485C49.9655172 26.4892664 47.2969125 23.8248838 44.0172414 23.8248838 40.7375703 23.8248838 38.0689655 26.4892664 38.0689655 29.7637485L38.0689655 30.9515214 40.4482759 30.9515214 40.4482759 29.7637485z"/>
      </g>
      <path fill="#FF5D5D" d="M56.2894862,11.8779965 C55.9849642,11.8779965 55.6805612,11.7620105 55.4482216,11.5301572 C54.9836612,11.0661834 54.9836612,10.3142638 55.4482216,9.85028996 L59.6542772,5.65088908 C60.1189862,5.18721223 60.8720974,5.18721223 61.3368065,5.65088908 C61.8013668,6.11486288 61.8013668,6.86678253 61.3368065,7.33075633 L57.1307509,11.5301572 C56.8983815,11.7619808 56.5940082,11.8779965 56.2894862,11.8779965 Z"/>
      <path fill="#FF5D5D" d="M60.4955418,11.8775511 C60.1910198,11.8775511 59.8866168,11.7615651 59.6542772,11.5297118 L55.4482216,7.33016245 C54.9836612,6.86618865 54.9836612,6.11412052 55.4482216,5.6502952 C55.913228,5.18661834 56.6663392,5.18676681 57.1307509,5.6502952 L61.3368065,9.84984454 C61.8013668,10.3138183 61.8013668,11.0658865 61.3368065,11.5297118 C61.1044371,11.7615651 60.7999151,11.8775511 60.4955418,11.8775511 Z"/>
      <path fill="#00D40B" d="M59.2636241,67.703324 C56.9676789,67.703324 55.099831,65.8384314 55.099831,63.5461188 C55.099831,61.2538061 56.9676789,59.3889135 59.2636241,59.3889135 C61.5595694,59.3889135 63.4274172,61.2538061 63.4274172,63.5461188 C63.4274172,65.8384314 61.5595694,67.703324 59.2636241,67.703324 Z M59.2636241,61.7644594 C58.2796009,61.7644594 57.4791414,62.5636524 57.4791414,63.5461188 C57.4791414,64.5285852 58.2796009,65.3277782 59.2636241,65.3277782 C60.2476474,65.3277782 61.0481069,64.5285852 61.0481069,63.5461188 C61.0481069,62.5636524 60.2476474,61.7644594 59.2636241,61.7644594 Z"/>
      <path fill="#FFC504" d="M33.4819823,9.09427249 C33.1776091,9.09427249 32.8730573,8.97828646 32.6408664,8.74643319 L29.2759267,5.38696594 C29.0527177,5.16411004 28.9273875,4.86208908 28.9273875,4.54703231 C28.9273875,4.23197555 29.0527177,3.92995459 29.2759267,3.70709869 L32.6408664,0.347631441 C33.1055754,-0.116045415 33.8588353,-0.115748472 34.323247,0.347631441 L37.6880379,3.70709869 C38.1525983,4.17107249 38.1525983,4.92299214 37.6880379,5.38696594 L34.3232767,8.74646288 C34.0909073,8.97828646 33.7863853,9.09427249 33.4819823,9.09427249 Z M31.799453,4.54706201 L33.4819823,6.22678079 L35.1643629,4.54706201 L33.4819823,2.86734323 L31.799453,4.54706201 Z"/>
    </g>
  </g>
</svg>
