<svg xmlns="http://www.w3.org/2000/svg" width="45" height="45" viewBox="0 0 45 45" xmlns:xlink="http://www.w3.org/1999/xlink">
  <defs>
    <circle id="a" cx="22.5" cy="22.5" r="22.5"/>
  </defs>
  <g fill="none" fill-rule="evenodd">
    <mask id="b" fill="white">
      <use xlink:href="#a"/>
    </mask>
    <use fill="#D8D8D8" xlink:href="#a"/>
    <polygon fill="#FFFFFF" fill-rule="nonzero" points="0 0 22.837 0 22.837 22.669 0 22.669" mask="url(#b)"/>
    <polygon fill="#7AC70C" fill-rule="nonzero" points="22.781 0 22.781 22.669 0 22.669 0 45 45 45 45 0" mask="url(#b)"/>
    <path fill="#7AC70C" fill-rule="nonzero" d="M17.6283171,9 L13.1845671,9 L11.8345671,4.78125 C11.7783171,4.6125 11.6658171,4.5 11.4970671,4.5 C11.3283171,4.5 11.1595671,4.6125 11.1595671,4.78125 L9.80956715,9 L5.42206715,9 C5.25331715,9 5.08456715,9.1125 5.08456715,9.28125 C5.02831715,9.45 5.08456715,9.61875 5.19706715,9.73125 L8.74081715,12.31875 L7.39081715,16.5375 C7.33456715,16.70625 7.39081715,16.875 7.50331715,16.9875 C7.55956715,17.04375 7.67206715,17.04375 7.72831715,17.04375 C7.78456715,17.04375 7.89706715,17.04375 7.95331715,16.9875 L11.4970671,14.4 L15.0408171,16.9875 C15.0970671,17.04375 15.2095671,17.04375 15.2658171,17.04375 C15.3220671,17.04375 15.4345671,17.04375 15.4908171,16.9875 C15.6033171,16.875 15.6595671,16.70625 15.6033171,16.5375 L14.2533171,12.31875 L17.7970671,9.73125 C17.9095671,9.675 17.9658171,9.5625 17.9658171,9.39375 C18.0220671,9.16875 17.8533171,9 17.6283171,9 L17.6283171,9 Z" mask="url(#b)"/>
  </g>
</svg>
