<svg xmlns="http://www.w3.org/2000/svg" width="45" height="45" viewBox="0 0 45 45" xmlns:xlink="http://www.w3.org/1999/xlink">
  <defs>
    <circle id="a" cx="22.5" cy="22.5" r="22.5"/>
  </defs>
  <g fill="none" fill-rule="evenodd">
    <mask id="b" fill="white">
      <use xlink:href="#a"/>
    </mask>
    <use fill="#D8D8D8" xlink:href="#a"/>
    <polygon fill="#FFC200" fill-rule="nonzero" points="0 10.556 45 10.556 45 34.389 0 34.389" mask="url(#b)"/>
    <path fill="#D33131" fill-rule="nonzero" d="M0,0 L45,0 L45,10.3333333 L0,10.3333333 L0,0 Z M0,34.1666667 L45,34.1666667 L45,44.5 L0,44.5 L0,34.1666667 Z" mask="url(#b)"/>
    <path fill="#7A221E" fill-rule="nonzero" d="M22.5,28.3888889 C20.98125,28.3888889 19.6875,27.9444444 19.0125,27.2777778 L19.0125,27.7222222 C19.0125,28.0555556 18.7875,28.2777778 18.45,28.2777778 L16.25625,28.2777778 C15.91875,28.2777778 15.69375,28.0555556 15.69375,27.7222222 L15.69375,26.7222222 C15.69375,26.5 15.80625,26.3333333 16.03125,26.2222222 L16.03125,23.1666667 L15.75,23.1666667 C15.4125,23.1666667 15.1875,22.9444444 15.1875,22.6111111 L15.1875,21.8333333 C15.1875,21.5 15.4125,21.2777778 15.75,21.2777778 L16.03125,21.2777778 L16.03125,19.7777778 C16.03125,19.7222222 16.03125,19.6111111 16.0875,19.5555556 C16.03125,19.4444444 16.03125,19.2777778 16.03125,19.1666667 C16.03125,18.3333333 16.9875,18.3333333 17.325,18.3333333 C18.5625,18.3333333 18.675,19 18.675,19.2222222 C18.7875,19.1666667 18.9,19.1111111 19.0125,19.1111111 L25.93125,19.1111111 C26.04375,19.1111111 26.15625,19.1666667 26.26875,19.2222222 L26.26875,19.1666667 C26.26875,18.3333333 27.225,18.3333333 27.5625,18.3333333 C28.8,18.3333333 28.9125,19.0555556 28.9125,19.2222222 C28.9125,19.3333333 28.9125,19.4444444 28.85625,19.5555556 C28.85625,19.6111111 28.9125,19.6666667 28.9125,19.7777778 L28.9125,21.2777778 L29.025,21.2777778 C29.3625,21.2777778 29.5875,21.5 29.5875,21.8333333 L29.5875,22.6111111 C29.5875,22.9444444 29.3625,23.1666667 29.025,23.1666667 L28.9125,23.1666667 L28.9125,26.1666667 C29.1375,26.2777778 29.25,26.4444444 29.25,26.6666667 L29.25,27.6666667 C29.25,28 29.025,28.2222222 28.6875,28.2222222 L26.49375,28.2222222 C26.15625,28.2222222 25.93125,28 25.93125,27.6666667 L25.93125,27.2222222 C25.3125,28 24.01875,28.3888889 22.5,28.3888889 L22.5,28.3888889 Z" mask="url(#b)"/>
    <path fill="#7A221E" fill-rule="nonzero" d="M27.5625,18.8888889 C27.9,18.8888889 28.35,18.9444444 28.35,19.2222222 C28.35,19.4444444 28.125,19.6111111 28.0125,19.7222222 L28.29375,19.7222222 L28.29375,21.7777778 L28.96875,21.7777778 L28.96875,22.5555556 L28.29375,22.5555556 L28.29375,26.6111111 L28.63125,26.6111111 L28.63125,27.6111111 L26.4375,27.6111111 L26.4375,26.6111111 L26.775,26.6111111 L26.775,22.5555556 L25.875,22.5555556 L25.875,26.1111111 C25.81875,27.0555556 24.3,27.7777778 22.44375,27.7777778 C20.5875,27.7777778 19.06875,27.0555556 19.0125,26.1111111 L19.0125,22.5555556 L18.05625,22.5555556 L18.05625,26.6666667 L18.39375,26.6666667 L18.39375,27.6666667 L16.2,27.6666667 L16.2,26.6666667 L16.5375,26.6666667 L16.5375,22.5555556 L15.69375,22.5555556 L15.69375,21.7777778 L16.5375,21.7777778 L16.5375,19.7222222 L16.7625,19.7222222 C16.65,19.6111111 16.48125,19.3333333 16.48125,19.1111111 C16.48125,18.8333333 16.875,18.8333333 17.2125,18.8333333 C17.55,18.8333333 18,18.8888889 18,19.1666667 C18,19.3888889 17.775,19.5555556 17.6625,19.6666667 L17.94375,19.6666667 L17.94375,21.7222222 L18.9,21.7222222 L18.9,19.6111111 L25.81875,19.6111111 L25.81875,21.7222222 L26.71875,21.7222222 L26.71875,19.6666667 L26.94375,19.6666667 C26.83125,19.5555556 26.6625,19.2777778 26.6625,19.0555556 C26.83125,18.8888889 27.225,18.8888889 27.5625,18.8888889 L27.5625,18.8888889 Z M27.5625,17.7777778 C26.49375,17.7777778 26.04375,18.1666667 25.81875,18.5555556 L19.0125,18.5555556 C18.73125,18.1111111 18.225,17.7777778 17.26875,17.7777778 C15.6375,17.7777778 15.4125,18.6666667 15.4125,19.1666667 C15.4125,19.2777778 15.4125,19.4444444 15.46875,19.5555556 L15.46875,20.7222222 C14.9625,20.8333333 14.625,21.2777778 14.625,21.7777778 L14.625,22.5555556 C14.625,23.0555556 14.9625,23.5 15.46875,23.6111111 L15.46875,25.8333333 C15.24375,26.0555556 15.13125,26.3333333 15.13125,26.6111111 L15.13125,27.6111111 C15.13125,28.2222222 15.6375,28.7222222 16.25625,28.7222222 L18.45,28.7222222 C18.9,28.7222222 19.2375,28.5 19.40625,28.1666667 C20.19375,28.6111111 21.2625,28.8333333 22.44375,28.8333333 C23.625,28.8333333 24.69375,28.5555556 25.48125,28.1666667 C25.65,28.5 26.04375,28.7222222 26.4375,28.7222222 L28.63125,28.7222222 C29.25,28.7222222 29.75625,28.2222222 29.75625,27.6111111 L29.75625,26.6111111 C29.75625,26.2777778 29.64375,26 29.41875,25.8333333 L29.41875,23.5555556 C29.8125,23.3888889 30.09375,23 30.09375,22.5555556 L30.09375,21.7777778 C30.09375,21.3333333 29.8125,20.9444444 29.41875,20.7777778 L29.41875,19.7777778 L29.41875,19.6111111 C29.41875,19.5 29.475,19.3888889 29.475,19.2777778 C29.475,18.5555556 28.96875,17.7777778 27.5625,17.7777778 L27.5625,17.7777778 Z" mask="url(#b)"/>
    <path fill="#7A221E" fill-rule="nonzero" d="M22.8375,20.1666667 C21.2625,20.1666667 20.30625,20.1111111 20.08125,19.6111111 L18.73125,18.1666667 C18.61875,18.0555556 18.5625,17.9444444 18.5625,17.7777778 C18.5625,16.4444444 20.1375,15.5555556 22.725,15.5555556 C24.13125,15.5555556 27,15.5555556 27,17.7777778 C27,18.5555556 26.26875,18.9444444 25.875,19.1666667 C25.7625,19.2222222 25.65,19.2777778 25.59375,19.3333333 C25.425,20.1666667 24.24375,20.1666667 22.8375,20.1666667 L22.8375,20.1666667 Z" mask="url(#b)"/>
    <path fill="#7A221E" fill-rule="nonzero" d="M22.725,16.1111111 C24.91875,16.1111111 26.4375,16.3888889 26.4375,17.7777778 C26.4375,18.6111111 24.975,18.7222222 24.975,19.2222222 C24.975,19.5555556 23.7375,19.5555556 22.78125,19.5555556 C21.825,19.5555556 20.53125,19.5555556 20.53125,19.2777778 L19.06875,17.7222222 C19.06875,16.7777778 20.53125,16.1111111 22.725,16.1111111 L22.725,16.1111111 Z M22.725,15 C19.2375,15 18,16.4444444 18,17.7777778 C18,18.0555556 18.1125,18.3333333 18.28125,18.5 L19.51875,19.8333333 C19.9125,20.6666667 21.31875,20.6666667 22.78125,20.6666667 C24.13125,20.6666667 25.65,20.6666667 26.04375,19.6666667 C26.04375,19.6666667 26.1,19.6666667 26.1,19.6111111 C26.55,19.3888889 27.5625,18.8333333 27.5625,17.7222222 C27.50625,15 24.01875,15 22.725,15 L22.725,15 Z" mask="url(#b)"/>
  </g>
</svg>
