<svg xmlns="http://www.w3.org/2000/svg" width="45" height="45" viewBox="0 0 45 45" xmlns:xlink="http://www.w3.org/1999/xlink">
  <defs>
    <circle id="a" cx="22.5" cy="22.5" r="22.5"/>
  </defs>
  <g fill="none" fill-rule="evenodd">
    <mask id="b" fill="white">
      <use xlink:href="#a"/>
    </mask>
    <use fill="#D8D8D8" xlink:href="#a"/>
    <polygon fill="#D33131" fill-rule="nonzero" points="0 0 45 0 45 45 0 45" mask="url(#b)"/>
    <path fill="#FFC200" fill-rule="nonzero" d="M32.4202882,19.40625 L25.3890382,19.40625 L23.2515382,12.76875 C23.1952882,12.54375 22.9140382,12.375 22.6890382,12.375 C22.4640382,12.375 22.1827882,12.54375 22.1265382,12.76875 L19.9890382,19.40625 L12.9577882,19.40625 C12.6765382,19.40625 12.4515382,19.575 12.3952882,19.8 C12.3390382,20.025 12.3952882,20.30625 12.6202882,20.475 L18.3015382,24.58125 L16.1640382,31.21875 C16.1077882,31.44375 16.1640382,31.725 16.3890382,31.89375 C16.5015382,31.95 16.6140382,32.00625 16.7265382,32.00625 C16.8390382,32.00625 16.9515382,31.95 17.0640382,31.89375 L22.7452882,27.7875 L28.4265382,31.89375 C28.5390382,31.95 28.6515382,32.00625 28.7640382,32.00625 C28.8765382,32.00625 28.9890382,31.95 29.1015382,31.89375 C29.3265382,31.725 29.3827882,31.44375 29.3265382,31.21875 L27.1890382,24.58125 L32.8702882,20.475 C33.0390382,20.3625 33.1515382,20.19375 33.1515382,19.96875 C33.0390382,19.6875 32.7577882,19.40625 32.4202882,19.40625 L32.4202882,19.40625 Z" mask="url(#b)"/>
  </g>
</svg>
